# xmcd
#
# Track frame offsets: 
#        150
#        20330
#        34741
#        61257
#        71815
#        88354
#        99854
#        119847
#        133398
#        148161
#        158575
#        173541
#
# Disc length: 2545 seconds
#
# Revision: 0
# Processed by: cddbd v1.5.1PL2 Copyright (c) Steve Scherf et al.
# Submitted via: ExactAudioCopy v0.95b3
#
DISCID=aa09ef0c
DTITLE=Bistro Blues Band - Tudod, csak azért...
DYEAR=1991
DGENRE=Blues
TTITLE0=Tudod, csak azért
TTITLE1=Ónos esö blues
TTITLE2=Oktogon blues
TTITLE3=Lálá-trálá-lálá
TTITLE4=Frontátvonulás
TTITLE5=Délután (Gézukám)
TTITLE6=Fölébrendtem én az éjjel
TTITLE7=Ó, hogy az a
TTITLE8=Hazafelé
TTITLE9=Bistro boogie
TTITLE10=Lassan múlnak a holnapok
TTITLE11=Szép új világ
EXTD=
EXTT0=
EXTT1=
EXTT2=
EXTT3=
EXTT4=
EXTT5=
EXTT6=
EXTT7=
EXTT8=
EXTT9=
EXTT10=
EXTT11=
PLAYORDER=
